<svg width="128" height="128" viewBox="0 0 128 128" xmlns="http://www.w3.org/2000/svg">
  <defs>
    <radialGradient id="bgGradient" cx="50%" cy="50%" r="50%">
      <stop offset="0%" style="stop-color:#374151;stop-opacity:1" />
      <stop offset="100%" style="stop-color:#1f2937;stop-opacity:1" />
    </radialGradient>
    <linearGradient id="shieldGradient" x1="0%" y1="0%" x2="100%" y2="100%">
      <stop offset="0%" style="stop-color:#f87171;stop-opacity:1" />
      <stop offset="50%" style="stop-color:#ef4444;stop-opacity:1" />
      <stop offset="100%" style="stop-color:#dc2626;stop-opacity:1" />
    </linearGradient>
  </defs>
  
  <!-- Background circle -->
  <circle cx="64" cy="64" r="62" fill="url(#bgGradient)" stroke="#4b5563" stroke-width="2"/>
  
  <!-- Clean shield - the main element -->
  <path d="M64 14 L98 28 L98 76 C98 94 81 106 64 112 C47 106 30 94 30 76 L30 28 Z" 
        fill="url(#shieldGradient)" 
        stroke="#991b1b" 
        stroke-width="3"
        stroke-linejoin="round"/>
  
  <!-- Inner shield depth -->
  <path d="M64 20 L92 32 L92 74 C92 89 78 99 64 104 C50 99 36 89 36 74 L36 32 Z" 
        fill="#fca5a5" 
        opacity="0.4"/>
  
  <!-- Paranoid eye - the star of the show -->
  <ellipse cx="64" cy="62" rx="24" ry="16" fill="#0f172a" stroke="#1f2937" stroke-width="1.5"/>
  <ellipse cx="64" cy="62" rx="20" ry="13" fill="#ffffff"/>
  <circle cx="64" cy="62" r="10" fill="#1e293b"/>
  <circle cx="64" cy="62" r="6" fill="#000000"/>
  
  <!-- Eye highlights for realism -->
  <ellipse cx="68" cy="58" rx="2.5" ry="4" fill="#ffffff" opacity="0.9"/>
  <circle cx="69" cy="57" r="1.5" fill="#ffffff"/>
  <circle cx="61" cy="65" r="1" fill="#ffffff" opacity="0.5"/>
</svg>